<?xml version="1.0" standalone="no"?>
<svg viewBox="0 0 200 200" xmlns="http://www.w3.org/2000/svg">
  <path fill="#08BDBA" d="M26.3,-41.7C33.9,-41.1,39.9,-33.8,42.5,-25.7C45.1,-17.7,44.3,-8.8,49.9,3.2C55.5,15.3,67.5,30.6,63.9,36.9C60.3,43.3,41.1,40.6,27.9,35.3C14.6,30,7.3,22,2,18.6C-3.4,15.2,-6.8,16.4,-15,18.8C-23.1,21.2,-36.1,24.7,-45.8,21.8C-55.5,18.9,-62,9.4,-66.6,-2.7C-71.2,-14.8,-74,-29.5,-66.3,-36C-58.6,-42.5,-40.6,-40.8,-27.8,-38.5C-15,-36.2,-7.5,-33.2,0.9,-34.8C9.3,-36.3,18.6,-42.3,26.3,-41.7Z" transform="translate(100 100)" />
</svg>
