<?xml version="1.0" standalone="no"?>
<svg viewBox="0 0 200 200" xmlns="http://www.w3.org/2000/svg">
  <path fill="#FF0066" d="M42,-62C51,-59.5,52.7,-42.2,47.3,-28.9C42,-15.7,29.6,-6.6,25.5,1.8C21.4,10.3,25.6,18.1,27.4,33.3C29.1,48.5,28.3,71.1,19.5,79.7C10.8,88.3,-6,82.9,-22.7,77.8C-39.4,72.7,-56.1,67.9,-65,56.8C-73.9,45.7,-75,28.3,-76.9,11.4C-78.8,-5.5,-81.4,-21.9,-77.6,-37.6C-73.8,-53.2,-63.5,-68.1,-49.5,-68.3C-35.5,-68.6,-17.8,-54.2,-0.6,-53.2C16.5,-52.2,32.9,-64.5,42,-62Z" transform="translate(100 100)" />
</svg>
