<?xml version="1.0" standalone="no"?>
<svg viewBox="0 0 200 200" xmlns="http://www.w3.org/2000/svg">
  <path fill="#FF0066" d="M12.7,-24.5C15.7,-17.8,17,-13.1,19.5,-8.6C22,-4.2,25.6,0,25.4,3.8C25.1,7.6,20.9,11,19.5,22.3C18.2,33.7,19.7,52.9,14.9,57.3C10.2,61.6,-0.9,51,-10.7,44.5C-20.5,37.9,-29.2,35.3,-41.2,30.6C-53.3,25.9,-68.8,19,-64.6,12.5C-60.5,6.1,-36.7,0.1,-28.9,-11.7C-21.2,-23.4,-29.4,-40.9,-27.2,-48C-25,-55.2,-12.5,-51.9,-3.9,-45.9C4.8,-39.9,9.6,-31.2,12.7,-24.5Z" transform="translate(100 100)" />
</svg>
