<?xml version="1.0" standalone="no"?>
<svg viewBox="0 0 200 200" xmlns="http://www.w3.org/2000/svg">
  <path fill="#08BDBA" d="M32.1,-61.2C40.6,-50.6,45.9,-40.1,56.3,-29.9C66.6,-19.7,82,-9.9,82.4,0.2C82.8,10.3,68.1,20.6,56.5,28.5C44.8,36.4,36.1,42,27.2,53.5C18.3,65,9.1,82.4,-1.3,84.7C-11.8,87,-23.6,74.2,-35.9,64.6C-48.1,55.1,-60.8,48.8,-67.6,38.5C-74.4,28.3,-75.2,14.1,-77,-1.1C-78.8,-16.2,-81.6,-32.5,-76.8,-46C-71.9,-59.5,-59.4,-70.3,-45.3,-77.8C-31.2,-85.2,-15.6,-89.3,-1.9,-86C11.8,-82.7,23.5,-71.9,32.1,-61.2Z" transform="translate(100 100)" />
</svg>
