<?xml version="1.0" standalone="no"?>
<svg viewBox="0 0 200 200" xmlns="http://www.w3.org/2000/svg">
  <path fill="#FF0066" d="M27.8,-45.5C37.5,-37,47.9,-31.8,58.5,-22.6C69.2,-13.4,80.2,-0.1,77.1,10C74,20.2,56.8,27.3,45.9,39.6C35,51.9,30.2,69.4,19.9,76.4C9.5,83.4,-6.4,79.9,-22.1,75.2C-37.7,70.6,-53,64.9,-59.5,53.6C-66.1,42.4,-63.9,25.6,-63.9,10.6C-63.9,-4.5,-66.1,-17.9,-64.3,-32.5C-62.5,-47.2,-56.7,-63.2,-45.4,-71C-34,-78.8,-17,-78.4,-4,-72.2C9,-66.1,18.1,-54.1,27.8,-45.5Z" transform="translate(100 100)" />
</svg>
