<?xml version="1.0" standalone="no"?>
<svg viewBox="0 0 200 200" xmlns="http://www.w3.org/2000/svg">
  <path fill="#08BDBA" d="M36.9,-66.2C46.5,-58.3,52,-45.8,58.7,-34C65.4,-22.1,73.2,-11.1,76.6,1.9C79.9,14.9,78.7,29.8,68.1,34.8C57.4,39.7,37.3,34.7,24.3,39.7C11.4,44.6,5.7,59.6,-2.4,63.9C-10.6,68.1,-21.1,61.5,-26.7,52.3C-32.4,43.1,-33,31.3,-43,22.1C-53,13,-72.2,6.5,-79.3,-4.1C-86.4,-14.7,-81.3,-29.3,-69.4,-35.2C-57.6,-41.1,-38.9,-38.1,-26.2,-44.2C-13.5,-50.3,-6.8,-65.4,3.4,-71.4C13.6,-77.3,27.3,-74.1,36.9,-66.2Z" transform="translate(100 100)" />
</svg>
