<?xml version="1.0" encoding="iso-8859-1"?>
<!-- Generator: Adobe Illustrator 18.0.0, SVG Export Plug-In . SVG Version: 6.00 Build 0)  -->
<!DOCTYPE svg PUBLIC "-//W3C//DTD SVG 1.1//EN" "http://www.w3.org/Graphics/SVG/1.1/DTD/svg11.dtd">
<svg version="1.1" id="Capa_1" xmlns="http://www.w3.org/2000/svg" xmlns:xlink="http://www.w3.org/1999/xlink" x="0px" y="0px"
	 viewBox="0 0 122.546 122.546" style="enable-background:new 0 0 122.546 122.546;" xml:space="preserve">
<g>
	<path d="M91.498,38.202c-0.911-0.441-2.236-1.083-3.585-1.411c-0.065-0.056-0.13-0.113-0.221-0.152
		c-2.992-1.303-6.349,1.459-8.913,2.602c-1.03,0.458-2.454,0.623-3.269,1.476c-0.108,0.058-0.208,0.144-0.29,0.275
		c-0.594,0.975-0.897,2.168-0.958,3.346c-0.07,0.327-0.147,0.649-0.255,0.956c-0.021,0.058-0.033,0.115-0.039,0.177
		c-9.43-0.714-18.967-0.843-28.38-1.153c-11.278-0.374-22.576-0.331-33.834,0.625c-0.264,0.022-5.249,1.102-3.436,3.163
		c2.63,2.992,10.54,10.514,11.642,11.399c0.067,0.054,0.147,0.091,0.22,0.134c-3.712,2.004-19.357,12.456-19.54,12.625
		c-0.023,0.021-0.029,0.045-0.05,0.067c-0.181,0.093-0.312,0.244-0.375,0.428c-0.277,0.335-0.331,0.871,0.119,1.212
		c3.481,2.627,8.04,2.35,12.217,2.413c6.347,0.097,12.565-0.668,18.899-0.785c6.919-0.129,13.837-0.052,20.751-0.357
		c7.094-0.314,14.011-0.683,21.109-0.14c-0.243,2.91-0.438,5.822-0.076,8.734c0.027,0.229,0.14,1.669,0.835,2.135
		c0.814,2.069,20.879-7.918,24.358-9.868c6.243-3.502,11.686-7.249,17.528-11.406c1.625-1.155,6.825-4.174,6.583-6.741
		C122.3,55.413,100.293,42.487,91.498,38.202z M7.541,74.743c-0.013,0.014-0.019,0.028-0.029,0.043
		c-1.211-0.154-2.378-0.393-3.444-0.75c0.28-0.097,0.56-0.212,0.847-0.333c1.84-0.785,3.772-1.509,5.735-1.942
		c0.214-0.047,0.357-0.16,0.461-0.294c0.406,0.031,0.815,0.045,1.222,0.072c-0.676,0.361-1.323,0.776-1.995,1.143
		C9.309,73.244,8.303,73.857,7.541,74.743z M13.184,75.024c-1.142,0.022-2.317,0.017-3.481-0.045
		c0.521-0.379,1.106-0.688,1.655-0.993c0.895-0.487,3.07-1.658,3.074-1.662c0.244-0.223,0.527-0.36,0.82-0.514
		c0.06-0.031,0.113-0.068,0.16-0.105c0.573,0.025,1.148,0.035,1.726,0.058c-1.213,1.116-2.424,2.238-3.815,3.15
		C13.269,74.948,13.224,74.987,13.184,75.024z M19.684,74.743c-0.535,0.028-1.07,0.058-1.608,0.084
		c-0.633,0.028-1.316,0.065-2.03,0.099c1.177-0.968,2.268-2.032,3.409-3.042c0.017-0.014,0.022-0.034,0.036-0.049
		c0.927,0.019,1.854,0.026,2.781,0.035c-0.103,0.127-0.202,0.263-0.299,0.402C21.744,72.609,19.69,74.551,19.684,74.743z
		 M25.765,73.943c-0.126,0.148-0.182,0.298-0.186,0.439c-1.13,0.072-2.258,0.145-3.388,0.214c0.258-0.218,0.503-0.452,0.712-0.724
		c0.292-0.376,1.658-1.726,1.719-1.999c0.927-0.004,1.852-0.022,2.778-0.033C26.81,72.498,26.337,73.279,25.765,73.943z
		 M30.705,74.101c-1.034,0.052-2.069,0.101-3.101,0.162c0.511-0.733,2.125-2.265,2.179-2.453c0.755-0.015,1.506-0.044,2.261-0.063
		C31.54,72.225,30.62,73.891,30.705,74.101z M36.455,73.476c-0.109,0.128-0.138,0.288-0.132,0.448
		c-1.319,0.011-2.633,0.05-3.943,0.101c0.168-0.248,1.844-2.306,1.832-2.339c1.339-0.037,2.673-0.082,4.009-0.125
		C37.545,72.116,37.03,72.81,36.455,73.476z M42.053,71.989c-0.37,0.549-0.507,1.159-0.816,1.726
		c-0.02,0.039-0.02,0.078-0.035,0.117c-0.989,0.029-1.976,0.054-2.964,0.07c0.366-0.471,0.74-0.956,1.239-1.262
		c0.221-0.134,0.371-0.333,0.428-0.558c0.12-0.058,0.234-0.14,0.321-0.287c0.038-0.076,0.086-0.144,0.149-0.201
		c0.024-0.031,0.028-0.07,0.048-0.102c0.665-0.022,1.324-0.043,1.988-0.065C42.289,71.619,42.172,71.812,42.053,71.989z
		 M45.523,73.575c-0.011,0.039-0.002,0.072-0.008,0.109c-0.84,0.032-1.679,0.065-2.518,0.095c0.094-0.236,0.192-0.471,0.323-0.689
		c0.146-0.245,0.317-0.475,0.481-0.707c0.116-0.165,0.212-0.436,0.359-0.569c0.148-0.138,0.213-0.296,0.238-0.45
		c0.686-0.024,1.376-0.048,2.059-0.07C46.059,72.015,45.736,72.815,45.523,73.575z M49.918,73.139
		c-0.065,0.121-0.097,0.247-0.113,0.374c-0.848,0.035-1.695,0.07-2.544,0.105c0.236-0.705,0.555-1.427,0.958-2.022
		c0.079-0.119,0.117-0.236,0.132-0.352c0.783-0.019,1.57-0.031,2.355-0.046C50.512,71.869,50.239,72.527,49.918,73.139z
		 M54.027,73.226c-0.014,0.043-0.005,0.082-0.012,0.123c-0.805,0.028-1.609,0.06-2.413,0.092c0.344-0.735,0.615-1.487,0.81-2.274
		c0.783-0.015,1.566-0.029,2.35-0.048C54.453,71.797,54.242,72.517,54.027,73.226z M58.182,73.119
		c-0.008,0.033-0.004,0.065-0.009,0.099c-0.808,0.021-1.616,0.045-2.424,0.072c0.227-0.775,0.467-1.56,0.941-2.222
		c0.739-0.021,1.476-0.056,2.213-0.087C58.639,71.688,58.343,72.383,58.182,73.119z M61.846,73.156
		c-0.651,0.006-1.301,0.01-1.951,0.022c0.228-0.772,0.558-1.513,0.807-2.279c0.64-0.037,1.277-0.086,1.916-0.134
		C62.276,71.535,62.024,72.333,61.846,73.156z M66.125,72.876c-0.036,0.101-0.041,0.195-0.039,0.283
		c-0.848-0.012-1.693-0.019-2.54-0.017c0.198-0.834,0.516-1.679,0.936-2.421c0.801,0.043,1.6,0.072,2.397,0.078
		C66.717,71.516,66.356,72.233,66.125,72.876z M69.802,72.831c-0.067,0.162-0.065,0.308-0.034,0.441
		c-0.661-0.026-1.32-0.056-1.981-0.074c0.296-0.793,0.611-1.582,0.751-2.402c0.769-0.01,1.539-0.024,2.308-0.045
		C70.47,71.431,70.102,72.114,69.802,72.831z M72.607,73.163c-0.082,0.078-0.134,0.167-0.176,0.255
		c-0.347-0.021-0.693-0.045-1.042-0.063c0.385-0.914,0.874-1.779,1.354-2.649c0.612-0.012,1.223-0.021,1.834-0.026
		C73.962,71.538,73.378,72.422,72.607,73.163z M75.537,72.077c0.338-0.479,0.689-0.947,1.079-1.383
		c0.339,0.008,0.678,0.026,1.019,0.041C76.944,71.195,76.244,71.641,75.537,72.077z M117.974,61.063
		c-2.565,2.3-5.505,4.149-8.414,5.939c-5.7,3.509-10.561,7.121-16.511,10.159c-2.89,1.473-5.932,2.928-9.125,3.491
		c-4.445,0.785-2.762-7.838-2.515-10.582c0.013-0.144-0.009-0.265-0.051-0.374c0.551-0.294,0.485-1.399-0.325-1.547
		c-5.03-0.913-59.009,2.628-71.099,1.599c4.615-3.118,15.308-8.552,15.415-8.605c3.087-1.498-7.242-12.875-10.627-14.809
		c10.728-0.769,21.479-0.707,32.221-0.352c11.828,0.391,23.802,0.594,35.564,1.932c0.318,0.035,0.721-0.208,0.799-0.543
		c0.38-1.662,0.347-3.323,0.389-5.022c0.144-5.98,5.236-3.683,8.012-2.228c4.569,2.396,28.155,16.933,28.883,17.411
		C121.602,58.201,118.273,60.796,117.974,61.063z"/>
</g>
<g>
</g>
<g>
</g>
<g>
</g>
<g>
</g>
<g>
</g>
<g>
</g>
<g>
</g>
<g>
</g>
<g>
</g>
<g>
</g>
<g>
</g>
<g>
</g>
<g>
</g>
<g>
</g>
<g>
</g>
</svg>
